<?xml version="1.0" encoding="utf-8"?>
<!-- Generator: Adobe Illustrator 22.1.0, SVG Export Plug-In . SVG Version: 6.00 Build 0)  -->
<svg version="1.1" id="Layer_1" xmlns="http://www.w3.org/2000/svg" xmlns:xlink="http://www.w3.org/1999/xlink" x="0px" y="0px"
	 viewBox="0 0 512 512" style="enable-background:new 0 0 512 512;" xml:space="preserve">
<g>
	<title>itch-io</title>
	<g>
		<path fill="#F8F8FF" d="M89.7,67.5C70,79.2,31.4,123.6,31,135.2v19.3c0,24.4,22.8,45.9,43.6,45.9c24.9,0,45.7-20.7,45.7-45.2
			c0,24.5,20,45.2,44.9,45.2c24.9,0,44.3-20.7,44.3-45.2c0,24.5,21.3,45.2,46.2,45.2h0.4c25,0,46.3-20.7,46.3-45.2
			c0,24.5,19.4,45.2,44.3,45.2s44.9-20.7,44.9-45.2c0,24.5,20.7,45.2,45.6,45.2c20.8,0,43.6-21.5,43.6-45.9v-19.3
			c-0.4-11.6-39-56-58.7-67.7C361.3,65.3,319,65,256,65C193,65,107.1,66,89.7,67.5L89.7,67.5z M209.2,188.9c-2.6,4.3-5.4,8-8.8,11.2
			v0.1c-9.4,9.2-22.3,14.9-36.5,14.9c-14.3,0-27.2-5.7-36.5-14.9c-3.4-3.3-6-6.9-8.4-11.1c-2.3,4.2-5.6,7.8-9.1,11.1
			c-9.4,9.2-22.3,14.9-36.5,14.9c0,0,0,0-0.1,0c-1.7,0-3.4-0.5-4.9-1c-2,20.9-2.9,40.8-3.1,55.4v0.1c-0.1,7.4-0.1,13.4-0.2,21.8
			c0.4,43.8-4.3,141.8,19.3,165.9c36.6,8.5,104,12.4,171.5,12.4h0.1c67.6-0.1,134.9-4,171.5-12.4c23.7-24.1,18.9-122.2,19.3-165.9
			c-0.1-8.4-0.1-14.4-0.2-21.8v-0.1c-0.3-14.6-1.1-34.5-3.1-55.4c-1.4,0.5-3.2,1-4.9,1h-0.1c-14.2,0-27.1-5.7-36.5-14.9h0.1
			c-3.4-3.3-6.7-6.9-9.1-11.1h-0.1c-2.3,4.2-5,7.8-8.4,11.1c-9.4,9.2-22.3,14.9-36.5,14.9c-14.2,0-27.1-5.7-36.5-14.9
			c-3.4-3.2-6.2-7-8.6-11.1l-0.2-0.2c-2.4,4.3-5.3,8.1-8.6,11.3c-9.4,9.2-22.3,14.9-36.5,14.9h-0.1c-0.4,0-1,0-1.5-0.1
			c-0.5,0.1-1,0.1-1.5,0.1c0,0,0,0-0.1,0c-14.2,0-27.1-5.7-36.5-14.9c-3.4-3.2-6.2-7-8.6-11.1L209.2,188.9L209.2,188.9z
			 M171.7,237.5c14.9,0.1,28,0,44.4,17.9c12.9-1.3,26.4-2,39.8-2c13.5,0,27,0.7,39.8,2c16.4-17.9,29.6-17.9,44.4-17.9h0.1
			c7,0,35.1,0,54.7,55l21,75.5c15.6,56.2-5,57.6-30.6,57.6c-38.1-1.4-59.2-29.1-59.2-56.8c-21.1,3.5-45.7,5.2-70.3,5.2
			s-49.2-1.7-70.2-5.2c0,27.7-21.1,55.4-59.2,56.8c-25.7-0.1-46.3-1.4-30.7-57.6l21-75.5C136.5,237.5,164.6,237.5,171.7,237.5
			L171.7,237.5z M256,280.8c-0.1,0-40.1,36.8-47.3,49.9l26.2-1v22.8c0,1.1,10.6,0.7,21.1,0.2c10.5,0.5,21,1,21-0.2v-22.8l26.3,1
			C296,317.6,256,280.8,256,280.8z"/>
	</g>
</g>
</svg>
